<svg width="93" height="92" viewBox="0 0 93 92" fill="none" xmlns="http://www.w3.org/2000/svg">
<rect x="0.541504" y="0.160645" width="91.7166" height="91.7166" rx="11" fill="#F5F5F5"/>
<path d="M21.3501 65.0734V62.7964C21.3501 53.9934 28.4863 46.8572 37.2893 46.8572C46.0923 46.8572 53.2285 53.9934 53.2285 62.7964V65.0734" stroke="#2A314F" stroke-width="7.83818" stroke-linecap="round"/>
<path d="M48.6743 51.4114C48.6743 45.1236 53.7717 40.0262 60.0594 40.0262C66.3472 40.0262 71.4446 45.1236 71.4446 51.4114V52.5499" stroke="#2A314F" stroke-width="7.83818" stroke-linecap="round"/>
<path d="M37.2893 46.8572C42.3194 46.8572 46.3974 42.7793 46.3974 37.7491C46.3974 32.7188 42.3194 28.641 37.2893 28.641C32.259 28.641 28.1812 32.7188 28.1812 37.7491C28.1812 42.7793 32.259 46.8572 37.2893 46.8572Z" stroke="#2A314F" stroke-width="7.83818" stroke-linecap="round" stroke-linejoin="round"/>
<path d="M60.0596 40.0262C63.8324 40.0262 66.8907 36.9678 66.8907 33.1951C66.8907 29.4224 63.8324 26.364 60.0596 26.364C56.2868 26.364 53.2285 29.4224 53.2285 33.1951C53.2285 36.9678 56.2868 40.0262 60.0596 40.0262Z" stroke="#2A314F" stroke-width="7.83818" stroke-linecap="round" stroke-linejoin="round"/>
</svg>
