<svg width="92" height="92" viewBox="0 0 92 92" fill="none" xmlns="http://www.w3.org/2000/svg">
<rect y="0.159668" width="91.7166" height="91.7166" rx="11" fill="#F5F5F5"/>
<path d="M67.568 23.2803H57.3618L58.6402 36.0645C58.6402 36.0645 61.1971 38.6214 65.0324 38.6214C67.7861 38.6214 69.661 37.3032 70.4997 36.5598C70.8339 36.2635 70.9561 35.8112 70.8827 35.3706L69.0812 24.5622C68.9579 23.8225 68.3179 23.2803 67.568 23.2803Z" stroke="#2A314F" stroke-width="7"/>
<path d="M57.3618 23.2803L58.6402 36.0645C58.6402 36.0645 56.0834 38.6214 52.2481 38.6214C48.4128 38.6214 45.856 36.0645 45.856 36.0645V23.2803H57.3618Z" stroke="#2A314F" stroke-width="7"/>
<path d="M45.8558 23.2803V36.0645C45.8558 36.0645 43.299 38.6214 39.4637 38.6214C35.6284 38.6214 33.0715 36.0645 33.0715 36.0645L34.35 23.2803H45.8558Z" stroke="#2A314F" stroke-width="7"/>
<path d="M34.3501 23.2803H24.1438C23.3939 23.2803 22.7539 23.8225 22.6306 24.5622L20.8291 35.3707C20.7557 35.8112 20.878 36.2635 21.2122 36.5598C22.0507 37.3032 23.9256 38.6214 26.6794 38.6214C30.5147 38.6214 33.0716 36.0645 33.0716 36.0645L34.3501 23.2803Z" stroke="#2A314F" stroke-width="7"/>
<path d="M22.8613 38.6213V64.1899C22.8613 67.0142 25.1508 69.3036 27.975 69.3036H63.771C66.5953 69.3036 68.8847 67.0142 68.8847 64.1899V38.6213" stroke="#2A314F" stroke-width="7"/>
<path d="M53.1172 69.3036V53.9625C53.1172 51.1382 50.8278 48.8488 48.0035 48.8488H42.8898C40.0656 48.8488 37.7761 51.1382 37.7761 53.9625V69.3036" stroke="#2A314F" stroke-width="7" stroke-miterlimit="16"/>
</svg>
