<svg width="93" height="92" viewBox="0 0 93 92" fill="none" xmlns="http://www.w3.org/2000/svg">
<rect x="0.541504" width="91.7166" height="91.7166" rx="11" fill="#F5F5F5"/>
<path d="M20.1658 67.9607V20.8719C20.1658 20.0419 20.8386 19.369 21.6686 19.369H68.7575C69.5876 19.369 70.2603 20.0419 70.2603 20.8719V37.904C70.2603 38.734 69.5876 39.4068 68.7575 39.4068H41.7064C40.8764 39.4068 40.2036 40.0796 40.2036 40.9097V67.9607C40.2036 68.7908 39.5307 69.4636 38.7008 69.4636H21.6686C20.8386 69.4636 20.1658 68.7908 20.1658 67.9607Z" stroke="#2A314F" stroke-width="7" stroke-linecap="round" stroke-linejoin="round"/>
<path d="M55.2319 39.4068V31.8926" stroke="#2A314F" stroke-width="7" stroke-linecap="round" stroke-linejoin="round"/>
<path d="M40.2036 39.4068V31.8926" stroke="#2A314F" stroke-width="7" stroke-linecap="round" stroke-linejoin="round"/>
<path d="M40.2036 54.4353H32.6895" stroke="#2A314F" stroke-width="7" stroke-linecap="round" stroke-linejoin="round"/>
<path d="M40.2036 39.4067H32.6895" stroke="#2A314F" stroke-width="7" stroke-linecap="round" stroke-linejoin="round"/>
</svg>
